<svg width="18" height="16" viewBox="0 0 18 16" fill="none" xmlns="http://www.w3.org/2000/svg">
<path d="M2 3.47816V12.0948C3.85002 11.1564 5.87637 11.2144 8 12.2482V3.55996C5.66248 2.20036 3.72146 2.19244 2 3.47816ZM9.58944 14.8081C9.5706 14.8218 9.5513 14.8348 9.53159 14.8471C9.36236 14.954 9.17903 15.0023 9 15.0017C8.82097 15.0023 8.63764 14.954 8.46841 14.8471C8.4487 14.8348 8.4294 14.8218 8.41056 14.8081C5.77511 12.9792 3.62611 12.9832 1.66868 14.7435C1.02507 15.3224 0 14.8656 0 14V3C0 2.70924 0.126545 2.43289 0.346666 2.24293C2.84176 0.0897162 5.79895 -0.0245566 9 1.82854C12.201 -0.0245566 15.1582 0.0897162 17.6533 2.24293C17.8735 2.43289 18 2.70924 18 3V14C18 14.8656 16.9749 15.3224 16.3313 14.7435C14.3739 12.9832 12.2249 12.9792 9.58944 14.8081ZM16 3.47816C14.2785 2.19244 12.3375 2.20036 10 3.55996V12.2482C12.1236 11.2144 14.15 11.1564 16 12.0948V3.47816Z" fill="#000" fillOpacity="1"/>
</svg>