<svg width="20" height="20" viewBox="0 0 20 20" fill="none" xmlns="http://www.w3.org/2000/svg">
<path d="M9.99999 3.974L10.2629 3.67817C12.0975 1.61426 15.2579 1.42836 17.3218 3.26295C19.3857 5.09754 19.5716 8.2579 17.737 10.3218L11.4948 17.3443C10.761 18.1699 9.49683 18.2442 8.67126 17.5104C8.61269 17.4583 8.55724 17.4029 8.50517 17.3443L2.26295 10.3218C0.428356 8.2579 0.614259 5.09754 2.67817 3.26295C4.74209 1.42836 7.90245 1.61426 9.73704 3.67817L9.99999 3.974ZM9.81314 6.77419L8.24222 5.0069C7.14147 3.76855 5.24525 3.65701 4.0069 4.75776C2.76855 5.85852 2.65701 7.75474 3.75776 8.99308L9.81314 15.8054C9.90487 15.9086 10.0629 15.9179 10.1661 15.8261C10.1734 15.8196 10.1803 15.8127 10.1868 15.8054L16.2422 8.99308C17.343 7.75474 17.2314 5.85852 15.9931 4.75776C14.7547 3.65701 12.8585 3.76855 11.7578 5.0069L10.1868 6.77419C10.0951 6.87738 9.9371 6.88668 9.8339 6.79495C9.82658 6.78844 9.81965 6.78151 9.81314 6.77419Z" fill="#000" fillOpacity="1"/>
</svg>