<svg width="18" height="18" viewBox="0 0 18 18" fill="none" xmlns="http://www.w3.org/2000/svg">
<path d="M13.5571 4.24356L6.12027 7.71408C6.0452 7.74911 6.01274 7.83837 6.04777 7.91344C6.07242 7.96625 6.12542 8.00001 6.1837 8.00001H9C9.55229 8.00001 10 8.44772 10 9.00001V11.8163C10 11.8991 10.0672 11.9663 10.15 11.9663C10.2083 11.9663 10.2613 11.9326 10.2859 11.8797L13.7564 4.44292C13.7915 4.36785 13.759 4.2786 13.6839 4.24356C13.6437 4.2248 13.5973 4.2248 13.5571 4.24356ZM7.5 10H2.12689C1.43654 10 0.876892 9.44036 0.876892 8.75001C0.876892 8.26435 1.15819 7.82265 1.59829 7.61728L15.5771 1.09382C16.4234 0.698888 17.3011 1.5766 16.9062 2.42289L10.3827 16.4017C10.0908 17.0273 9.34698 17.2978 8.72139 17.0058C8.2813 16.8005 8 16.3588 8 15.8731V10.5C8 10.2239 7.77614 10 7.5 10Z" fill="#000" fillOpacity="1"/>
</svg>