<svg width="12" height="16" viewBox="0 0 12 16" fill="none" xmlns="http://www.w3.org/2000/svg">
<path d="M6.78031 15.6254C6.38 16.1249 5.62 16.1249 5.21969 15.6254C1.74653 11.2919 0 8.14813 0 6C0 2.68629 2.68629 0 6 0C9.31371 0 12 2.68629 12 6C12 8.14813 10.2535 11.2919 6.78031 15.6254ZM10 6C10 3.79086 8.20914 2 6 2C3.79086 2 2 3.79086 2 6C2 7.40327 3.32825 9.91353 6 13.3821C8.67175 9.91353 10 7.40327 10 6ZM6 8C4.89543 8 4 7.10457 4 6C4 4.89543 4.89543 4 6 4C7.10457 4 8 4.89543 8 6C8 7.10457 7.10457 8 6 8Z" fill="#000" fillOpacity="1"/>
</svg>