<svg width="18" height="18" viewBox="0 0 18 18" fill="none" xmlns="http://www.w3.org/2000/svg">
<path d="M5.07202 17.1949C4.33876 17.5804 3.43181 17.2984 3.04631 16.5652C2.89281 16.2732 2.83983 15.9387 2.8956 15.6136L3.64578 11.2397L0.467967 8.14211C-0.125258 7.56386 -0.137396 6.61419 0.440855 6.02096C0.671118 5.78474 0.972832 5.63101 1.29929 5.58357L5.69091 4.94543L7.65491 0.965941C8.02154 0.223061 8.92098 -0.0819474 9.66386 0.284686C9.95968 0.430681 10.1991 0.670123 10.3451 0.965941L12.3091 4.94543L16.7007 5.58357C17.5206 5.7027 18.0886 6.46386 17.9695 7.28368C17.922 7.61013 17.7683 7.91185 17.5321 8.14211L14.3542 11.2397L15.1044 15.6136C15.2445 16.4301 14.6961 17.2055 13.8796 17.3456C13.5544 17.4013 13.22 17.3484 12.928 17.1949L9.00001 15.1298L5.07202 17.1949ZM5.48644 14.7174L8.53467 13.1149C8.826 12.9617 9.17403 12.9617 9.46535 13.1149L12.5136 14.7174C12.6358 14.7817 12.787 14.7347 12.8512 14.6125C12.8768 14.5638 12.8856 14.5081 12.8763 14.4539L12.2942 11.0596C12.2385 10.7352 12.3461 10.4042 12.5818 10.1745L15.0478 7.77068C15.1467 7.67431 15.1487 7.51603 15.0523 7.41716C15.014 7.37779 14.9637 7.35217 14.9093 7.34426L11.5012 6.84904C11.1755 6.80172 10.894 6.59715 10.7483 6.302L9.2242 3.21381C9.16309 3.09 9.01319 3.03916 8.88937 3.10027C8.84007 3.1246 8.80016 3.16451 8.77583 3.21381L7.25172 6.302C7.10605 6.59715 6.82449 6.80172 6.49878 6.84904L3.09076 7.34426C2.95412 7.36411 2.85945 7.49097 2.8793 7.62761C2.88721 7.68202 2.91283 7.73231 2.9522 7.77068L5.41827 10.1745C5.65396 10.4042 5.7615 10.7352 5.70587 11.0596L5.12371 14.4539C5.10037 14.59 5.19176 14.7192 5.32785 14.7425C5.38204 14.7518 5.43778 14.743 5.48644 14.7174Z"  fill="#000" fillOpacity="1"/>
</svg>