<svg width="18" height="18" viewBox="0 0 18 18" fill="none" xmlns="http://www.w3.org/2000/svg">
<path d="M5.07202 17.1949C4.33876 17.5804 3.43181 17.2984 3.04631 16.5652C2.89281 16.2732 2.83983 15.9387 2.8956 15.6136L3.64578 11.2397L0.467967 8.14211C-0.125258 7.56386 -0.137396 6.61419 0.440855 6.02096C0.671118 5.78474 0.972832 5.63101 1.29929 5.58357L5.69091 4.94543L7.65491 0.965941C8.02154 0.223061 8.92098 -0.0819474 9.66386 0.284686C9.95968 0.430681 10.1991 0.670123 10.3451 0.965941L12.3091 4.94543L16.7007 5.58357C17.5206 5.7027 18.0886 6.46386 17.9695 7.28368C17.922 7.61013 17.7683 7.91185 17.5321 8.14211L14.3542 11.2397L15.1044 15.6136C15.2445 16.4301 14.6961 17.2055 13.8796 17.3456C13.5544 17.4013 13.22 17.3484 12.928 17.1949L9.00001 15.1298L5.07202 17.1949Z"  fill="#000" fillOpacity="1"/>
</svg>